<svg width="33" height="58" viewBox="0 0 33 58" fill="none" xmlns="http://www.w3.org/2000/svg">
<path d="M32.0021 4.75605C32.9785 3.77974 32.9785 2.19683 32.0021 1.22051C31.0258 0.244204 29.4429 0.244204 28.4666 1.22051L32.0021 4.75605ZM14.9455 14.7417L13.1777 16.5094L16.7132 20.045L18.481 18.2772L14.9455 14.7417ZM28.4666 1.22051L14.9455 14.7417L18.481 18.2772L32.0021 4.75605L28.4666 1.22051Z" fill="#0168A8"/>
<path d="M4.84199 1.13067C3.86567 0.15436 2.28276 0.15436 1.30645 1.13067C0.330141 2.10698 0.330141 3.68989 1.30645 4.6662L4.84199 1.13067ZM13.7992 17.1589L15.5669 18.9267L19.1025 15.3912L17.3347 13.6234L13.7992 17.1589ZM1.30645 4.6662L13.7992 17.1589L17.3347 13.6234L4.84199 1.13067L1.30645 4.6662Z" fill="#0168A8"/>
<path d="M32.0607 17.2482C33.037 16.2719 33.037 14.689 32.0607 13.7127C31.0844 12.7364 29.5015 12.7364 28.5252 13.7127L32.0607 17.2482ZM15.004 27.2339L13.2363 29.0016L16.7718 32.5372L18.5396 30.7694L15.004 27.2339ZM28.5252 13.7127L15.004 27.2339L18.5396 30.7694L32.0607 17.2482L28.5252 13.7127Z" fill="#0168A8" fill-opacity="0.75"/>
<path d="M4.90058 13.6229C3.92427 12.6465 2.34136 12.6465 1.36505 13.6229C0.388735 14.5992 0.388735 16.1821 1.36505 17.1584L4.90058 13.6229ZM13.8578 29.6511L15.6255 31.4189L19.1611 27.8833L17.3933 26.1156L13.8578 29.6511ZM1.36505 17.1584L13.8578 29.6511L17.3933 26.1156L4.90058 13.6229L1.36505 17.1584Z" fill="#0168A8" fill-opacity="0.75"/>
<path d="M32.0021 30.8576C32.9785 29.8813 32.9785 28.2984 32.0021 27.3221C31.0258 26.3458 29.4429 26.3458 28.4666 27.3221L32.0021 30.8576ZM14.9455 40.8432L13.1777 42.611L16.7132 46.1465L18.481 44.3788L14.9455 40.8432ZM28.4666 27.3221L14.9455 40.8432L18.481 44.3788L32.0021 30.8576L28.4666 27.3221Z" fill="#0168A8" fill-opacity="0.5"/>
<path d="M4.84199 27.2322C3.86567 26.2559 2.28276 26.2559 1.30645 27.2322C0.330141 28.2085 0.330141 29.7915 1.30645 30.7678L4.84199 27.2322ZM13.7992 43.2605L15.5669 45.0282L19.1025 41.4927L17.3347 39.7249L13.7992 43.2605ZM1.30645 30.7678L13.7992 43.2605L17.3347 39.7249L4.84199 27.2322L1.30645 30.7678Z" fill="#0168A8" fill-opacity="0.5"/>
<path d="M32.0021 42.1662C32.9785 41.1899 32.9785 39.607 32.0021 38.6307C31.0258 37.6544 29.4429 37.6544 28.4666 38.6307L32.0021 42.1662ZM14.9455 52.1518L13.1777 53.9196L16.7132 57.4551L18.481 55.6874L14.9455 52.1518ZM28.4666 38.6307L14.9455 52.1518L18.481 55.6874L32.0021 42.1662L28.4666 38.6307Z" fill="#0168A8" fill-opacity="0.25"/>
<path d="M4.84199 38.5408C3.86567 37.5645 2.28276 37.5645 1.30645 38.5408C0.330141 39.5171 0.330141 41.1 1.30645 42.0764L4.84199 38.5408ZM13.7992 54.5691L15.5669 56.3368L19.1025 52.8013L17.3347 51.0335L13.7992 54.5691ZM1.30645 42.0764L13.7992 54.5691L17.3347 51.0335L4.84199 38.5408L1.30645 42.0764Z" fill="#0168A8" fill-opacity="0.25"/>
</svg>
