<svg width="65" height="37" viewBox="0 0 65 37" fill="none" xmlns="http://www.w3.org/2000/svg">
<path d="M4.83027 1.04864C3.85396 0.0723286 2.27104 0.0723286 1.29473 1.04864C0.318422 2.02495 0.318422 3.60786 1.29473 4.58417L4.83027 1.04864ZM16.7321 20.0215L18.4999 21.7893L22.0354 18.2538L20.2676 16.486L16.7321 20.0215ZM1.29473 4.58417L16.7321 20.0215L20.2676 16.486L4.83027 1.04864L1.29473 4.58417Z" fill="#0168A8"/>
<path d="M1.19317 32.0565C0.21686 33.0328 0.21686 34.6157 1.19317 35.592C2.16948 36.5683 3.75239 36.5683 4.7287 35.592L1.19317 32.0565ZM18.9919 21.3288L20.7596 19.561L17.2241 16.0255L15.4563 17.7933L18.9919 21.3288ZM4.7287 35.592L18.9919 21.3288L15.4563 17.7933L1.19317 32.0565L4.7287 35.592Z" fill="#0168A8"/>
<path d="M19.092 0.982233C18.1157 0.00592234 16.5328 0.00592234 15.5565 0.982233C14.5801 1.95854 14.5801 3.54146 15.5565 4.51777L19.092 0.982233ZM30.9938 19.9551L32.7616 21.7229L36.2971 18.1874L34.5294 16.4196L30.9938 19.9551ZM15.5565 4.51777L30.9938 19.9551L34.5294 16.4196L19.092 0.982233L15.5565 4.51777Z" fill="#0168A8" fill-opacity="0.75"/>
<path d="M15.4549 31.99C14.4786 32.9664 14.4786 34.5493 15.4549 35.5256C16.4312 36.5019 18.0141 36.5019 18.9904 35.5256L15.4549 31.99ZM33.2536 21.2624L35.0214 19.4946L31.4858 15.9591L29.7181 17.7269L33.2536 21.2624ZM18.9904 35.5256L33.2536 21.2624L29.7181 17.7269L15.4549 31.99L18.9904 35.5256Z" fill="#0168A8" fill-opacity="0.75"/>
<path d="M34.631 1.04864C33.6547 0.0723286 32.0718 0.0723286 31.0955 1.04864C30.1192 2.02495 30.1192 3.60786 31.0955 4.58417L34.631 1.04864ZM46.5329 20.0215L48.3006 21.7893L51.8362 18.2538L50.0684 16.486L46.5329 20.0215ZM31.0955 4.58417L46.5329 20.0215L50.0684 16.486L34.631 1.04864L31.0955 4.58417Z" fill="#0168A8" fill-opacity="0.5"/>
<path d="M30.994 32.0565C30.0176 33.0328 30.0176 34.6157 30.994 35.592C31.9703 36.5683 33.5532 36.5683 34.5295 35.592L30.994 32.0565ZM48.7927 21.3288L50.5604 19.561L47.0249 16.0255L45.2571 17.7933L48.7927 21.3288ZM34.5295 35.592L48.7927 21.3288L45.2571 17.7933L30.994 32.0565L34.5295 35.592Z" fill="#0168A8" fill-opacity="0.5"/>
<path d="M47.5451 1.04864C46.5688 0.0723286 44.9859 0.0723286 44.0096 1.04864C43.0333 2.02495 43.0333 3.60786 44.0096 4.58417L47.5451 1.04864ZM59.4469 20.0215L61.2147 21.7893L64.7502 18.2538L62.9825 16.486L59.4469 20.0215ZM44.0096 4.58417L59.4469 20.0215L62.9825 16.486L47.5451 1.04864L44.0096 4.58417Z" fill="#0168A8" fill-opacity="0.25"/>
<path d="M43.908 32.0565C42.9317 33.0328 42.9317 34.6157 43.908 35.592C44.8843 36.5683 46.4672 36.5683 47.4435 35.592L43.908 32.0565ZM61.7067 21.3288L63.4745 19.561L59.939 16.0255L58.1712 17.7933L61.7067 21.3288ZM47.4435 35.592L61.7067 21.3288L58.1712 17.7933L43.908 32.0565L47.4435 35.592Z" fill="#0168A8" fill-opacity="0.25"/>
</svg>
