<svg width="31" height="31" viewBox="0 0 31 31" fill="none" xmlns="http://www.w3.org/2000/svg">
<g clip-path="url(#clip0_2239_3281)">
<path d="M27.5611 6.75301C26.6996 5.69299 25.3551 4.97398 23.5636 4.61603C22.5081 4.4065 21.5501 5.05701 21.2376 6.20152C20.9396 7.29301 21.3491 8.64652 22.7092 9.12254C23.3772 9.35305 23.9747 9.12752 24.3931 8.94904C24.4896 9.32352 24.6086 9.85057 24.7251 10.3655C24.8382 10.8665 24.9531 11.3771 25.0691 11.8446C24.1296 11.4826 22.7436 11.1226 21.5206 12.0716C21.3256 12.2226 21.1571 12.3646 21.0037 12.4941C20.3431 13.0506 20.2051 13.1671 19.1827 12.8796C19.0137 12.8321 18.8632 12.757 18.7037 12.6931C19.7227 11.6111 20.4822 10.1071 20.4822 8.72656C20.4822 6.03857 18.4637 3.85156 15.9822 3.85156C13.5007 3.85156 11.4822 6.03857 11.4822 8.72656C11.4822 10.1071 12.2417 11.6111 13.2607 12.6925C13.1012 12.7565 12.9507 12.8315 12.7812 12.8795C11.7602 13.1695 11.6212 13.0515 10.9612 12.494C10.8072 12.3645 10.6387 12.2225 10.4442 12.0705C9.21976 11.1235 7.83624 11.4825 6.89622 11.844C7.00819 11.3935 7.12474 10.8765 7.23923 10.3695C7.35472 9.85297 7.47425 9.32445 7.57175 8.94846C7.98976 9.12693 8.58923 9.35146 9.25573 9.12195C10.6158 8.64646 11.0252 7.29295 10.7273 6.20094C10.4158 5.05742 9.46075 4.40791 8.40026 4.61545C6.60876 4.97346 5.26427 5.69293 4.40276 6.75348C3.64925 7.68148 0.710771 13.8675 1.00274 15.199C1.24222 16.291 2.32825 16.898 4.95478 18.3645L5.43179 18.631C6.09478 19.0015 6.82028 19.0465 7.4613 19.086C8.48681 19.149 8.86679 19.2235 9.10028 19.814C10.1233 22.404 10.8663 26.206 10.8733 26.244C10.9423 26.6025 11.2563 26.8515 11.6088 26.8515C11.6558 26.8515 11.7038 26.847 11.7523 26.8375C12.1588 26.759 12.4248 26.366 12.3458 25.9585C12.3148 25.798 11.5703 21.9835 10.4948 19.2625C9.88983 17.7325 8.53931 17.6495 7.55329 17.589C7.02577 17.5561 6.52731 17.5255 6.16327 17.3216L5.68579 17.0551C3.87231 16.0431 2.5628 15.3111 2.47427 14.9216C2.44526 14.0956 4.75778 8.69557 5.56726 7.69959C6.20224 6.9176 7.25476 6.37561 8.69476 6.08656C9.08276 6.00658 9.25274 6.49807 9.27976 6.59709C9.30378 6.6841 9.48976 7.45109 8.76126 7.70609C8.60476 7.76111 8.32978 7.64311 8.08679 7.53758C7.7388 7.38658 7.30878 7.19709 6.85479 7.39561C6.66929 7.47559 6.4188 7.65113 6.28081 8.03258C6.14183 8.41355 5.97231 9.16707 5.77632 10.0411C5.59479 10.8461 5.38983 11.7586 5.2338 12.2281C5.1663 12.4311 4.96128 13.0491 5.41327 13.4676C5.87528 13.8951 6.43075 13.6626 7.01774 13.4141C7.98073 13.0106 8.83122 12.7191 9.52626 13.2566C9.70274 13.3936 9.85427 13.5226 9.99378 13.6395C10.8663 14.3765 11.4863 14.802 13.1888 14.3236C13.7018 14.1795 14.1563 13.9685 14.5773 13.7425C15.0443 13.9991 15.5223 14.1641 15.9833 14.1641C16.4443 14.1641 16.9223 13.9991 17.3893 13.7425C17.8103 13.9685 18.2648 14.1795 18.7773 14.3236C20.4824 14.802 21.1013 14.3761 21.9728 13.6395C22.1118 13.5225 22.2638 13.3936 22.4403 13.257C23.1348 12.718 23.9858 13.0101 24.9483 13.4135C25.5348 13.662 26.0908 13.8945 26.5528 13.467C27.0053 13.049 26.8003 12.4315 26.7328 12.2285C26.5768 11.7576 26.3708 10.843 26.1893 10.0355C25.9927 9.16455 25.8238 8.41256 25.6862 8.03252C25.5473 7.65102 25.2968 7.476 25.1113 7.39549C24.6577 7.20049 24.2263 7.38646 23.8787 7.53752C23.6372 7.64199 23.3638 7.76152 23.2057 7.70603C22.4757 7.45103 22.6622 6.68352 22.6857 6.59703C22.7127 6.49801 22.8642 6.00951 23.2717 6.0865C24.7107 6.37449 25.7632 6.91701 26.3992 7.69848C27.2077 8.69551 29.5207 14.0954 29.4987 14.8785C29.4037 15.3115 28.0927 16.043 26.2782 17.056L25.8022 17.322C25.4382 17.5255 24.9402 17.5565 24.4127 17.5895C23.4267 17.6505 22.0762 17.733 21.4712 19.263C20.3952 21.984 19.6502 25.7985 19.6197 25.959C19.5407 26.366 19.8067 26.7595 20.2132 26.838C20.2597 26.847 20.3082 26.8515 20.3551 26.8515C20.7076 26.8515 21.0217 26.6025 21.0907 26.2445C21.0982 26.2065 21.8407 22.4045 22.8647 19.8155C23.0982 19.2245 23.4787 19.1495 24.5036 19.0865C25.1437 19.047 25.8702 19.0024 26.5332 18.6315L27.0076 18.3665C29.6356 16.8995 30.7227 16.2925 30.9621 15.1995C31.2531 13.867 28.3151 7.68102 27.5611 6.75301ZM15.9821 12.6641C14.9821 12.6641 12.9821 10.5905 12.9821 8.72656C12.9821 6.86258 14.3251 5.35156 15.9821 5.35156C17.6391 5.35156 18.9821 6.86258 18.9821 8.72656C18.9821 10.5905 16.9821 12.6641 15.9821 12.6641Z" fill="#0168A8"/>
</g>
<defs>
<clipPath id="clip0_2239_3281">
<rect width="30" height="30" fill="white" transform="translate(0.982422 0.351562)"/>
</clipPath>
</defs>
</svg>
