<svg width="28" height="28" viewBox="0 0 28 28" fill="none" xmlns="http://www.w3.org/2000/svg">
<g clip-path="url(#clip0_2239_3285)">
<path d="M26.8976 12.5129C26.7459 12.0809 26.5126 11.6821 26.2104 11.3382C26.2187 11.2309 26.2232 11.1209 26.2232 11.0085C26.2232 10.9852 26.2232 10.9646 26.2232 10.9466C26.2135 10.308 26.0733 9.67819 25.8113 9.09581C25.5492 8.51342 25.1708 7.99079 24.6994 7.56003L27.4958 4.71841L27.5049 4.7088C27.8248 4.36595 27.9958 3.91027 27.9805 3.44156C27.9651 2.97286 27.7647 2.52934 27.423 2.20816L26.9074 2.75683L27.4218 2.20665C27.0951 1.9008 26.6643 1.73058 26.2168 1.73048C25.9266 1.73048 25.5719 1.72615 25.3731 1.94418L22.2972 5.29286C21.904 4.88859 21.4336 4.56733 20.914 4.34808C20.3943 4.12884 19.836 4.01608 19.272 4.01647C19.2532 4.01647 19.2283 4.01647 19.1952 4.01647C18.3537 4.03117 17.536 4.29784 16.8476 4.78204C16.0952 4.37325 15.2522 4.15963 14.3959 4.16069C14.3718 4.16069 14.3441 4.16069 14.3118 4.16069C13.0601 4.18104 11.8588 4.65683 10.9327 5.499C10.0065 6.34117 9.41903 7.492 9.28017 8.73607C8.6467 8.37842 7.93138 8.19096 7.20392 8.19193C7.1866 8.19193 7.16344 8.19193 7.13463 8.19193C6.0244 8.20976 4.96563 8.66314 4.18657 9.45435C3.40751 10.2456 2.97055 11.3112 2.96991 12.4216C2.96991 12.4386 2.96991 12.4617 2.96991 12.4915V12.4945H2.3416C1.90289 12.4945 1.52142 12.5133 1.1761 12.9369C0.989883 13.1657 0.980469 13.7731 0.980469 13.7731C0.980469 13.7886 0.98047 13.8025 0.981411 13.8151C0.981411 13.8249 0.980469 13.8356 0.980469 13.8467C0.98075 13.8881 0.983952 13.9294 0.990065 13.9703C1.10661 17.7629 2.79123 20.6168 5.27907 22.4281C6.28866 23.1568 7.39929 23.734 8.57578 24.1415C8.65018 24.6507 8.90526 25.1162 9.29444 25.4528C9.68362 25.7895 10.1809 25.9749 10.6955 25.9753H18.1543C18.669 25.975 19.1663 25.7896 19.5555 25.4529C19.9447 25.1161 20.1998 24.6506 20.2741 24.1414C21.4504 23.7338 22.5609 23.1565 23.5704 22.4279C26.0581 20.6164 27.7425 17.7624 27.8592 13.9716C27.8592 13.9716 27.8856 13.2621 27.705 12.9562C27.5702 12.653 27.2371 12.5481 26.8976 12.5129ZM24.7167 10.9665C24.7167 10.9797 24.7167 10.9955 24.7167 11.0085C24.7154 11.1722 24.7019 11.3355 24.6762 11.4971L24.6161 11.8969L24.9157 12.1684C25.0242 12.2665 25.122 12.3758 25.2076 12.4945H7.7507C7.93827 12.2282 8.18617 12.0101 8.47413 11.8579C8.7621 11.7058 9.08198 11.6239 9.40764 11.6189H9.41705H9.42251H9.44133C9.83729 11.6208 10.2247 11.7345 10.5588 11.9469L11.1363 12.3181L11.5592 11.7775C11.5848 11.7447 11.6138 11.715 11.6411 11.6833C11.8488 11.4432 12.1048 11.2496 12.3925 11.1152C12.6802 10.9809 12.993 10.9088 13.3104 10.9038H13.3199C13.3214 10.9038 13.3315 10.9038 13.3479 10.9038C13.8348 10.9036 14.3087 11.0613 14.6985 11.3531L15.2297 11.7485L15.69 11.2723C15.897 11.057 16.1446 10.8849 16.4186 10.7659C16.6925 10.6469 16.9873 10.5834 17.2859 10.579H17.3008H17.3144C17.4305 10.58 17.5463 10.5896 17.661 10.6078L18.3012 10.7037L18.4916 10.084C18.6879 9.44579 19.08 8.88546 19.6124 8.48235C20.1448 8.07923 20.7904 7.85372 21.458 7.83775L21.6214 7.84208C21.7381 7.84584 21.8545 7.85577 21.9702 7.87184C22.17 7.89961 22.3668 7.94632 22.5578 8.01135C22.5736 8.01681 22.59 8.02077 22.6058 8.02642C22.6898 8.05617 22.7715 8.09081 22.8521 8.12753C22.8709 8.136 22.8897 8.14335 22.9071 8.1522C22.9877 8.19086 23.0665 8.23304 23.1436 8.27873C23.1972 8.30998 23.2526 8.33898 23.3042 8.37287C23.3703 8.41712 23.4333 8.46494 23.4957 8.51389C23.8694 8.80558 24.1731 9.17729 24.3844 9.6017C24.5957 10.0261 24.7092 10.4925 24.7167 10.9665ZM25.9982 3.34315L26.0313 3.31152C26.0809 3.26339 26.1475 3.23669 26.2166 3.23715C26.2814 3.23662 26.3439 3.26109 26.3911 3.3055C26.4416 3.35283 26.4716 3.41798 26.4747 3.48708C26.4778 3.55618 26.4539 3.62379 26.4079 3.67548L23.4111 6.72121C23.3347 6.6877 23.2572 6.65631 23.1786 6.62707C23.1665 6.59769 23.1547 6.56833 23.1409 6.53914L25.9982 3.34315ZM14.3361 5.66719H14.3443H14.3957C15.1394 5.66606 15.8653 5.89441 16.4744 6.3211L16.9728 6.66944L17.4183 6.2552C17.9095 5.79511 18.5544 5.5344 19.2274 5.52389H19.2406C19.2424 5.52389 19.2526 5.52389 19.2718 5.52389C19.6344 5.52376 19.9933 5.59625 20.3275 5.73708C20.6616 5.87791 20.9641 6.08425 21.2172 6.34389C20.374 6.40065 19.5619 6.68436 18.8668 7.16498C18.1717 7.6456 17.6195 8.30524 17.2686 9.07405C17.2624 9.07405 17.2556 9.07405 17.2481 9.07405C16.4628 9.08852 15.7018 9.34838 15.0717 9.81721C14.5391 9.54173 13.9481 9.39801 13.3485 9.3981C13.3317 9.3981 13.3086 9.3981 13.2779 9.3981C12.4027 9.4141 11.5606 9.73522 10.897 10.306C10.8087 9.99977 10.7613 9.68323 10.7558 9.36457C10.7558 9.34405 10.7558 9.32692 10.7558 9.30508C10.7562 8.35033 11.1318 7.43397 11.8015 6.75349C12.4712 6.07301 13.3814 5.68289 14.3361 5.66719ZM4.47658 12.4677V12.4621V12.4547C4.47658 12.4515 4.47658 12.4408 4.47658 12.4216C4.47733 11.7065 4.75898 11.0202 5.26084 10.5108C5.76271 10.0013 6.44462 9.70935 7.15967 9.69785H7.16664H7.2043C7.75727 9.69702 8.29725 9.86549 8.75165 10.1806C8.14264 10.301 7.57539 10.5776 7.10551 10.9833C6.63564 11.3891 6.27928 11.9099 6.07138 12.4948H4.47771L4.47658 12.4677ZM22.6802 21.2135C21.7044 21.9163 20.6233 22.4598 19.4772 22.8237L19.3471 22.8642C19.3215 22.8723 19.2953 22.88 19.2695 22.8877C19.103 22.9397 18.9344 22.9887 18.7638 23.0346L18.6845 23.0551C18.5249 23.0972 18.3638 23.1367 18.2014 23.1736L18.0986 23.1967C17.9431 23.2306 17.7865 23.2624 17.629 23.292C17.5887 23.2997 17.5482 23.3074 17.5076 23.3144C17.355 23.3419 17.2018 23.3666 17.0476 23.3897C17.002 23.3963 16.9568 23.4038 16.9114 23.41C16.7608 23.4314 16.6091 23.4502 16.4564 23.4665C16.4076 23.4722 16.3592 23.4784 16.3104 23.4835C16.1598 23.4993 16.0063 23.5123 15.8536 23.524C15.8041 23.5277 15.755 23.5324 15.7055 23.5358C15.5469 23.5467 15.3876 23.5546 15.228 23.5607C15.1845 23.5626 15.1412 23.5656 15.0975 23.5671C14.8949 23.574 14.6916 23.5775 14.4876 23.5776C14.4784 23.5776 14.4592 23.5763 14.4257 23.5763H14.4123C14.3869 23.5763 14.3681 23.5776 14.3602 23.5776C14.1558 23.5776 13.9523 23.5741 13.7495 23.5671C13.7092 23.5656 13.6693 23.5629 13.629 23.561C13.466 23.5545 13.3029 23.5467 13.1408 23.5358C13.0949 23.5324 13.0495 23.5281 13.0037 23.5243C12.8469 23.5127 12.6906 23.4993 12.5353 23.4831C12.4899 23.4784 12.4451 23.4726 12.4001 23.4677C12.2442 23.4502 12.0888 23.4308 11.9341 23.4093C11.8921 23.4035 11.8501 23.3967 11.8079 23.3905C11.6501 23.3665 11.4929 23.3411 11.3372 23.3133L11.2276 23.2931C11.0649 23.2624 10.9034 23.2299 10.743 23.1941C10.7145 23.1879 10.6865 23.1816 10.6573 23.1752C10.4867 23.1366 10.3172 23.0951 10.1489 23.0508C10.1318 23.0461 10.1143 23.0418 10.0971 23.0372C9.91275 22.9877 9.73036 22.9348 9.54998 22.8787L9.36057 22.8196C8.21907 22.4558 7.1423 21.9136 6.17023 21.2133C4.04409 19.6415 2.6406 17.3357 2.49957 14.0006H26.3507C26.2096 17.3359 24.8063 19.6417 22.6802 21.2135Z" fill="#0168A8"/>
</g>
<defs>
<clipPath id="clip0_2239_3285">
<rect width="27" height="27" fill="white" transform="translate(0.982422 0.351562)"/>
</clipPath>
</defs>
</svg>
