<svg width="25" height="25" viewBox="0 0 25 25" fill="none" xmlns="http://www.w3.org/2000/svg">
<g clip-path="url(#clip0_2239_3287)">
<path d="M12.9821 1.66728C7.08114 1.66728 2.29814 6.45028 2.29814 12.3513C2.29814 18.2523 7.08114 23.0353 12.9821 23.0353C18.8831 23.0353 23.6661 18.2523 23.6661 12.3513C23.6541 6.45528 18.8781 1.67928 12.9831 1.66728H12.9821ZM12.9821 23.9643C6.56814 23.9643 1.36914 18.7653 1.36914 12.3513C1.36914 5.93728 6.56814 0.738281 12.9821 0.738281C19.3961 0.738281 24.5951 5.93728 24.5951 12.3513V12.3663C24.5951 18.7713 19.4031 23.9633 12.9981 23.9633C12.9931 23.9633 12.9871 23.9633 12.9821 23.9633H12.9831L12.9821 23.9643Z" fill="#0168A8"/>
<path d="M12.9824 24.3516C6.36842 24.3176 1.01642 18.9656 0.982422 12.3546V12.3516C0.982422 5.72456 6.35542 0.351562 12.9824 0.351562C19.6094 0.351562 24.9824 5.72456 24.9824 12.3516C24.9484 18.9656 19.5964 24.3176 12.9854 24.3516H12.9824ZM12.9824 1.12556C6.78242 1.12556 1.75642 6.15156 1.75642 12.3516C1.75642 18.5516 6.78242 23.5776 12.9824 23.5776C19.1824 23.5776 24.2084 18.5516 24.2084 12.3516C24.2044 6.15356 19.1804 1.13056 12.9834 1.12556H12.9824ZM12.9824 23.4226C6.86842 23.4226 1.91142 18.4656 1.91142 12.3516C1.91142 6.23756 6.86842 1.28056 12.9824 1.28056C19.0964 1.28056 24.0534 6.23756 24.0534 12.3516C24.0534 18.4656 19.0964 23.4226 12.9824 23.4226ZM12.9824 2.05456C7.29542 2.05456 2.68542 6.66456 2.68542 12.3516C2.68542 18.0386 7.29542 22.6486 12.9824 22.6486C18.6694 22.6486 23.2794 18.0386 23.2794 12.3516C23.2794 12.3506 23.2794 12.3486 23.2794 12.3466C23.2794 6.66256 18.6714 2.05456 12.9874 2.05456C12.9854 2.05456 12.9844 2.05456 12.9824 2.05456Z" fill="#0168A8"/>
<path d="M10.6605 10.2619C10.6605 11.4159 9.72447 12.3519 8.57047 12.3519C7.41647 12.3519 6.48047 11.4159 6.48047 10.2619C6.48047 9.10787 7.41647 8.17188 8.57047 8.17188H8.57947C9.72947 8.17188 10.6615 9.10388 10.6615 10.2539V10.2629L10.6605 10.2619Z" fill="#0168A8"/>
<path d="M19.5628 10.2619C19.5628 11.4159 18.6268 12.3519 17.4728 12.3519C16.3188 12.3519 15.3828 11.4159 15.3828 10.2619C15.3828 9.10787 16.3188 8.17188 17.4728 8.17188H17.4818C18.6318 8.17188 19.5638 9.10388 19.5638 10.2539V10.2629L19.5628 10.2619Z" fill="#0168A8"/>
<path d="M15.6934 17.2288C15.6934 19.2418 14.5324 20.8678 12.9834 20.8678C11.5124 20.8678 10.2734 19.2418 10.2734 17.2288C10.2734 15.2158 11.4344 13.5898 12.9834 13.5898C14.4544 13.5898 15.6934 15.2158 15.6934 17.2288Z" fill="#0168A8"/>
<path d="M10.9693 8.17141C10.9583 8.17241 10.9463 8.17341 10.9343 8.17341C10.8573 8.17341 10.7883 8.14341 10.7373 8.09341L8.18227 6.54541C8.08827 6.45841 8.01027 6.35641 7.95327 6.24141L7.95027 6.23541C7.94827 6.22041 7.94727 6.20341 7.94727 6.18641C7.94727 6.08941 7.97727 5.99841 8.02827 5.92441L8.02727 5.92641C8.11427 5.83241 8.21627 5.75441 8.33127 5.69741L8.33727 5.69441C8.35227 5.69241 8.36927 5.69141 8.38627 5.69141C8.48327 5.69141 8.57427 5.72141 8.64827 5.77241L8.64627 5.77141L11.2013 7.31941C11.2953 7.40641 11.3733 7.50841 11.4303 7.62341L11.4333 7.62941C11.4353 7.64441 11.4363 7.66141 11.4363 7.67841C11.4363 7.77541 11.4063 7.86641 11.3553 7.94041L11.3563 7.93841C11.2843 8.07741 11.1413 8.17041 10.9773 8.17041C10.9743 8.17041 10.9723 8.17141 10.9693 8.17141Z" fill="#0168A8"/>
<path d="M10.9702 8.55734C10.7962 8.54034 10.6382 8.48434 10.5012 8.39934L10.5062 8.40234L7.95116 6.85434C7.76616 6.72534 7.62916 6.53734 7.56616 6.31934L7.56416 6.31234C7.54616 6.24734 7.53516 6.17334 7.53516 6.09734C7.53516 5.94834 7.57416 5.80934 7.64316 5.68934L7.64116 5.69334C7.77016 5.50834 7.95816 5.37134 8.17616 5.30834L8.18316 5.30634C8.24816 5.28834 8.32216 5.27734 8.39816 5.27734C8.54716 5.27734 8.68616 5.31634 8.80616 5.38534L8.80216 5.38334L11.3572 6.93134C11.5422 7.06034 11.6792 7.24834 11.7422 7.46634L11.7442 7.47334C11.7622 7.53834 11.7732 7.61234 11.7732 7.68834C11.7732 7.83734 11.7342 7.97634 11.6652 8.09634L11.6672 8.09234C11.5532 8.36734 11.2882 8.55734 10.9772 8.55734C10.9742 8.55734 10.9722 8.55734 10.9692 8.55734H10.9702ZM8.49316 6.15734H8.41616V6.23434L10.9712 7.78234L11.0482 7.70534L8.49316 6.15734Z" fill="#0168A8"/>
<path d="M14.9943 8.17141C14.9923 8.17141 14.9893 8.17141 14.9863 8.17141C14.8213 8.17141 14.6793 8.07841 14.6083 7.94141L14.6073 7.93941C14.5573 7.86641 14.5273 7.77641 14.5273 7.67841C14.5273 7.66141 14.5283 7.64441 14.5303 7.62741V7.62941C14.5533 7.49141 14.6403 7.37841 14.7603 7.32041L14.7623 7.31941L17.3173 5.77141C17.3903 5.72141 17.4803 5.69141 17.5783 5.69141C17.5953 5.69141 17.6123 5.69241 17.6293 5.69441H17.6273C17.7653 5.71741 17.8783 5.80441 17.9363 5.92441L17.9373 5.92641C17.9873 5.99941 18.0173 6.08941 18.0173 6.18741C18.0173 6.20441 18.0163 6.22141 18.0143 6.23841V6.23641C17.9913 6.37441 17.9043 6.48741 17.7843 6.54541L17.7823 6.54641L15.2273 8.09441C15.1763 8.14341 15.1063 8.17441 15.0303 8.17441C15.0183 8.17441 15.0053 8.17341 14.9943 8.17241H14.9953L14.9943 8.17141Z" fill="#0168A8"/>
<path d="M14.9947 8.55747H14.9907C14.6997 8.55747 14.4437 8.40447 14.3007 8.17347L14.2987 8.17047C14.1987 8.02447 14.1387 7.84347 14.1387 7.64947C14.1387 7.61447 14.1407 7.58047 14.1447 7.54747V7.55147C14.2017 7.32247 14.3407 7.13347 14.5287 7.01147L14.5317 7.00947L17.0867 5.46147C17.2027 5.39447 17.3427 5.35547 17.4907 5.35547C17.5677 5.35547 17.6417 5.36547 17.7117 5.38547L17.7057 5.38447C17.9347 5.44147 18.1237 5.58047 18.2457 5.76847L18.2477 5.77147C18.3147 5.88747 18.3537 6.02747 18.3537 6.17547C18.3537 6.25247 18.3437 6.32647 18.3237 6.39647L18.3247 6.39047C18.2677 6.61947 18.1287 6.80847 17.9407 6.93047L17.9377 6.93247L15.3827 8.48047C15.2967 8.53347 15.1937 8.56447 15.0827 8.56447C15.0517 8.56447 15.0217 8.56247 14.9927 8.55747H14.9957H14.9947ZM14.9167 7.78347L17.5487 6.31247L17.9357 6.00247L17.6257 6.23447L17.3157 5.84747L17.5477 6.15747L14.9927 7.70547L14.6057 8.01547L14.9167 7.78347Z" fill="#0168A8"/>
</g>
<defs>
<clipPath id="clip0_2239_3287">
<rect width="24" height="24" fill="white" transform="translate(0.982422 0.351562)"/>
</clipPath>
</defs>
</svg>
