<svg width="32" height="33" viewBox="0 0 32 33" fill="none" xmlns="http://www.w3.org/2000/svg">
<path d="M16.4824 2.01953C17.0174 2.01953 17.4512 2.46725 17.4512 3.01953V5.6862C17.4512 6.23848 17.0174 6.6862 16.4824 6.6862C15.9474 6.6862 15.5137 6.23848 15.5137 5.6862V3.01953C15.5137 2.46725 15.9474 2.01953 16.4824 2.01953Z" fill="#0168A8"/>
<path fill-rule="evenodd" clip-rule="evenodd" d="M16.4831 12.2174C15.2283 11.2527 13.8185 11.1185 12.6197 11.6935C11.2561 12.3476 10.3477 13.842 10.3477 15.5253C10.3477 17.1503 10.9988 18.3852 11.8152 19.3499C12.4577 20.1091 13.25 20.7485 13.9021 21.2748C14.0448 21.3901 14.1812 21.5003 14.3075 21.6047C14.5668 21.8191 14.8821 22.0796 15.2109 22.2812C15.5389 22.4824 15.9748 22.6859 16.4831 22.6859C16.9913 22.6859 17.4273 22.4824 17.7552 22.2812C18.0841 22.0796 18.3994 21.8191 18.6586 21.6047C18.7851 21.5001 18.9212 21.3903 19.0641 21.2748C19.7161 20.7485 20.5084 20.1091 21.1509 19.3499C21.9674 18.3852 22.6185 17.1503 22.6185 15.5253C22.6185 13.842 21.7101 12.3476 20.3464 11.6935C19.1477 11.1185 17.7378 11.2527 16.4831 12.2174ZM13.4361 13.5073C12.7976 13.8136 12.2852 14.5721 12.2852 15.5253C12.2852 16.5369 12.6723 17.3227 13.2743 18.034C13.784 18.6361 14.395 19.1309 15.0387 19.6521C15.1971 19.7804 15.3578 19.9105 15.5191 20.044C15.7963 20.2733 16.0075 20.4435 16.2003 20.5617C16.3939 20.6804 16.4747 20.6859 16.4831 20.6859C16.4915 20.6859 16.5722 20.6804 16.7658 20.5617C16.9587 20.4435 17.1699 20.2733 17.447 20.044C17.6085 19.9104 17.7689 19.7805 17.9274 19.6521C18.5712 19.1309 19.1821 18.6361 19.6918 18.034C20.2937 17.3227 20.681 16.5369 20.681 15.5253C20.681 14.5721 20.1686 13.8136 19.53 13.5073C18.957 13.2324 18.1027 13.2425 17.1865 14.2413C17.0036 14.4408 16.7492 14.5539 16.4831 14.5539C16.217 14.5539 15.9625 14.4408 15.7796 14.2413C14.8635 13.2425 14.0091 13.2324 13.4361 13.5073Z" fill="#0168A8"/>
<path d="M17.4512 27.0195C17.4512 26.4673 17.0174 26.0195 16.4824 26.0195C15.9474 26.0195 15.5137 26.4673 15.5137 27.0195V29.6862C15.5137 30.2385 15.9474 30.6862 16.4824 30.6862C17.0174 30.6862 17.4512 30.2385 17.4512 29.6862V27.0195Z" fill="#0168A8"/>
<path d="M2.59766 16.3516C2.59766 15.7993 3.03139 15.3516 3.56641 15.3516H6.14974C6.68476 15.3516 7.11849 15.7993 7.11849 16.3516C7.11849 16.9038 6.68476 17.3516 6.14974 17.3516H3.56641C3.03139 17.3516 2.59766 16.9038 2.59766 16.3516Z" fill="#0168A8"/>
<path d="M26.8164 15.3516C26.2814 15.3516 25.8477 15.7993 25.8477 16.3516C25.8477 16.9038 26.2814 17.3516 26.8164 17.3516H29.3997C29.9347 17.3516 30.3685 16.9038 30.3685 16.3516C30.3685 15.7993 29.9347 15.3516 29.3997 15.3516H26.8164Z" fill="#0168A8"/>
<path d="M8.04741 25.059C7.66909 24.6685 7.66909 24.0354 8.04741 23.6449L8.49052 23.1874C8.86883 22.7969 9.48221 22.7969 9.86054 23.1874C10.2389 23.578 10.2389 24.2112 9.86054 24.6017L9.41743 25.059C9.03911 25.4496 8.42573 25.4496 8.04741 25.059Z" fill="#0168A8"/>
<path d="M23.1041 8.10213C22.7257 8.49265 22.7257 9.12583 23.1041 9.51635C23.4824 9.90687 24.0958 9.90687 24.4741 9.51635L24.9174 9.05867C25.2958 8.66815 25.2958 8.03497 24.9174 7.64445C24.5391 7.25393 23.9258 7.25393 23.5475 7.64445L23.1041 8.10213Z" fill="#0168A8"/>
<path d="M24.9172 25.059C25.2955 24.6685 25.2955 24.0354 24.9172 23.6449L24.4741 23.1874C24.0958 22.7969 23.4824 22.7969 23.1041 23.1874C22.7257 23.578 22.7257 24.2112 23.1041 24.6017L23.5472 25.059C23.9256 25.4496 24.5388 25.4496 24.9172 25.059Z" fill="#0168A8"/>
<path d="M9.86081 8.10213C10.2391 8.49265 10.2391 9.12583 9.86081 9.51635C9.48249 9.90687 8.8691 9.90687 8.49079 9.51635L8.04741 9.05867C7.66909 8.66815 7.66909 8.03497 8.04741 7.64445C8.42573 7.25393 9.03911 7.25393 9.41743 7.64445L9.86081 8.10213Z" fill="#0168A8"/>
</svg>
