<svg width="61" height="60" viewBox="0 0 61 60" fill="none" xmlns="http://www.w3.org/2000/svg">
<g clip-path="url(#clip0_2239_3575)">
<path d="M51.351 9.32973L42.2021 0.181062C41.9607 -0.0603538 41.5691 -0.0603538 41.3277 0.181062L40.7833 0.72553C40.5418 0.966946 40.5418 1.35846 40.7833 1.59988L41.3625 2.17916L23.1034 20.4383L22.5241 19.859C22.2827 19.6176 21.8912 19.6176 21.6498 19.859L21.1053 20.4035C20.8639 20.6449 20.8639 21.0364 21.1053 21.2778L30.2543 30.4268C30.4957 30.6682 30.8872 30.6682 31.1286 30.4268L31.6731 29.8823C31.9145 29.6409 31.9145 29.2494 31.6731 29.0079L31.1304 28.4652L35.1716 24.4239C36.5445 25.976 38.5489 26.9571 40.7793 26.9571C42.2506 26.9571 43.6232 26.5287 44.782 25.7928C45.3699 27.2775 45.6969 28.8927 45.6969 30.5843C45.6969 37.8036 39.8233 43.6772 32.6042 43.6772H32.5754C27.7132 43.6772 23.2521 40.936 21.0052 36.7127H27.2566C28.097 36.7127 28.7784 36.0312 28.7784 35.1909V34.0109C28.7784 33.1702 28.097 32.4891 27.2566 32.4891H10.6332C9.79277 32.4891 9.11133 33.1705 9.11133 34.0109V35.1909C9.11133 36.0315 9.79277 36.7127 10.6332 36.7127H17.8505C19.874 41.5661 24.1955 45.0803 29.2421 46.1715V51.1043C22.8694 52.145 18.1704 55.7329 18.1704 60.0004H47.9344C47.9344 55.7329 43.2354 52.1453 36.8627 51.1043V45.9901H36.7186C43.5233 44.1709 48.5505 37.9552 48.5505 30.5846C48.5505 28.1105 47.9803 25.7688 46.9687 23.6783C47.7874 22.478 48.2674 21.0287 48.2674 19.4692C48.2674 17.2391 47.2861 15.2347 45.734 13.8616L49.3895 10.2064L49.9322 10.7491C50.1736 10.9905 50.5651 10.9905 50.8066 10.7491L51.351 10.2047C51.5924 9.96267 51.5924 9.57115 51.351 9.32973ZM40.779 24.1032C38.2236 24.1032 36.1444 22.024 36.1444 19.4686C36.1444 16.9132 38.2236 14.8343 40.779 14.8343C43.3344 14.8343 45.4135 16.9132 45.4135 19.4686C45.4135 22.024 43.3347 24.1032 40.779 24.1032Z" fill="#0168A8"/>
</g>
<defs>
<clipPath id="clip0_2239_3575">
<rect width="60" height="60" fill="white" transform="translate(0.322266)"/>
</clipPath>
</defs>
</svg>
