<svg width="61" height="61" viewBox="0 0 61 61" fill="none" xmlns="http://www.w3.org/2000/svg">
<g clip-path="url(#clip0_2239_3577)">
<path d="M18.749 20.272C19.4093 27.1085 23.8311 31.6236 30.1011 31.6236C36.3708 31.6236 40.7921 27.1084 41.4527 20.272L42.3888 12.8858C42.9694 5.62906 37.0478 0.382812 30.1011 0.382812C23.1541 0.382812 17.2325 5.62906 17.8128 12.8858L18.749 20.272Z" fill="#0168A8"/>
<path d="M54.3837 49.9034L53.9356 47.0498C53.5602 44.6572 52.0565 42.5918 49.8955 41.4997L40.4651 36.731C40.1699 36.5817 39.9296 36.3567 39.7281 36.1055C36.998 38.992 33.6812 40.6898 30.1012 40.6898C26.5212 40.6898 23.204 38.992 20.474 36.1055C20.2725 36.3567 20.0322 36.5817 19.737 36.731L10.3067 41.4997C8.14548 42.5918 6.64197 44.6572 6.26662 47.0498L5.81826 49.9034C5.65853 50.922 5.86935 52.4168 6.78177 53.1641C8.0017 54.1617 12.5081 60.3836 30.1012 60.3836C47.6939 60.3836 52.2001 54.1617 53.4201 53.1641C54.3328 52.4168 54.5434 50.922 54.3837 49.9034Z" fill="#0168A8"/>
</g>
<defs>
<clipPath id="clip0_2239_3577">
<rect width="60" height="60" fill="white" transform="translate(0.101562 0.382812)"/>
</clipPath>
</defs>
</svg>
