<svg width="60" height="60" viewBox="0 0 60 60" fill="none" xmlns="http://www.w3.org/2000/svg">
<path d="M56.7769 16.7005C54.9405 14.8641 52.74 13.9606 50.1462 13.9606C47.5523 13.9606 45.3661 14.7913 43.5591 16.6857H43.5007C41.6937 14.7913 39.5367 13.9606 36.9429 13.9606C34.3634 13.9606 32.1483 14.8641 30.3122 16.7005C28.4906 18.5368 27.5723 20.7519 27.5723 23.3312C27.5723 26.6975 28.5342 28.9126 29.9187 31.6234C32.3815 35.7767 33.9846 38.2105 34.6987 38.9246L34.8736 39.0995C36.0832 40.2362 37.3948 40.8481 38.8376 40.8481C40.8195 40.8481 42.3642 40.003 43.5155 38.5456H43.5738C44.7105 40.003 46.2844 40.8481 48.2665 40.8481C49.7093 40.8481 51.0354 40.2507 52.2305 39.114L52.4053 38.9246C53.134 38.2105 54.7223 35.7622 57.1854 31.6234C58.5694 28.9128 59.5312 26.6977 59.5312 23.3314C59.5312 20.7373 58.6132 18.5368 56.7769 16.7005ZM55.8443 28.9128C55.684 29.2334 55.3779 29.4083 55.0427 29.4083C54.9115 29.4083 54.7805 29.3792 54.6492 29.3209C54.2121 29.1022 54.0225 28.5777 54.2412 28.1405C55.0282 26.5522 55.4508 25.1239 55.5091 23.9143C55.582 22.5444 55.0866 21.2328 54.0956 20.198C53.0318 19.0759 51.5309 18.4346 49.9861 18.4346C49.4906 18.4346 49.0971 18.0411 49.0971 17.5456C49.0971 17.0502 49.4906 16.6566 49.9861 16.6566C52.0263 16.6566 53.9937 17.5018 55.3927 18.9737C56.7042 20.3581 57.3745 22.1506 57.2871 24.0015C57.2142 25.4445 56.7333 27.1058 55.8443 28.9128ZM48.9366 12.0662C47.8437 12.8384 43.5445 15.5347 43.5445 15.5347L41.2566 6.28062L43.1655 4.92523L44.4188 10.4192C44.7103 7.2132 46.6922 5.66844 51.4723 4.05078C52.0406 8.07313 51.5452 10.1572 48.9366 12.0662ZM52.2548 44.1458L38.6716 47.2585C38.5774 47.9188 38.2943 48.6263 37.8698 49.1923C37.068 50.4186 35.8418 51.3146 34.4269 51.692C33.012 52.0222 31.5028 51.7862 30.2766 50.9373L18.5798 43.4853C18.0138 43.1551 17.9196 42.4948 18.2496 41.9762C18.5798 41.4573 19.2401 41.3159 19.7116 41.6459L31.4555 49.0979C33.012 50.0413 35.04 49.6168 36.0305 48.1074C37.0209 46.598 36.5494 44.5229 35.04 43.5324L20.4192 34.2882C18.0138 32.7791 15.2311 31.5999 12.5899 32.9204L0.46875 39.8068L0.515859 53.2013L9.14695 47.2114C10.5148 46.8812 12.0239 47.1643 13.2973 47.9661L23.4846 54.3805C25.9842 55.937 29.0498 56.3143 31.6912 55.6067L53.764 50.5602C55.5091 50.1828 56.688 48.4379 56.2636 46.5512C55.792 44.8534 54.0471 43.7687 52.2548 44.1458Z" fill="#0168A8"/>
</svg>
