<svg width="61" height="61" viewBox="0 0 61 61" fill="none" xmlns="http://www.w3.org/2000/svg">
<path fill-rule="evenodd" clip-rule="evenodd" d="M45.9062 15.6953V45.6953H15.9062V15.6953H45.9062ZM28.5331 23.1953H25.6115L20.0645 38.1953H22.7004L23.7476 35.2629H30.3877L31.4125 38.1953H34.2071L28.5331 23.1953ZM38.886 23.1953H36.2607V38.1953H38.886V23.1953ZM27.0502 25.7119L29.6651 33.1953H24.4768L27.0502 25.7119ZM48.4062 38.1953H53.4062V43.1953H48.4062V38.1953ZM18.4062 48.1953H23.4062V53.1953H18.4062V48.1953ZM28.4062 48.1953H33.4062V53.1953H28.4062V48.1953ZM18.4062 8.19531H23.4062V13.1953H18.4062V8.19531ZM38.4062 48.1953H43.4062V53.1953H38.4062V48.1953ZM28.4062 8.19531H33.4062V13.1953H28.4062V8.19531ZM38.4062 8.19531H43.4062V13.1953H38.4062V8.19531ZM48.4062 28.1953H53.4062V33.1953H48.4062V28.1953ZM8.40625 38.1953H13.4062V43.1953H8.40625V38.1953ZM48.4062 18.1953H53.4062V23.1953H48.4062V18.1953ZM8.40625 28.1953H13.4062V33.1953H8.40625V28.1953ZM8.40625 18.1953H13.4062V23.1953H8.40625V18.1953Z" fill="#0168A8"/>
</svg>
