<svg width="61" height="61" viewBox="0 0 61 61" fill="none" xmlns="http://www.w3.org/2000/svg">
<g clip-path="url(#clip0_2239_3418)">
<path d="M37.8509 47.513H9.89407V7.41599H37.8433V10.4156H41.5999V6.59715C41.6024 3.00023 38.6491 0.0546875 35.0547 0.0546875H12.6877C9.08812 0.0546875 6.14258 3.00023 6.14258 6.59715V53.5096C6.14258 57.1118 9.08812 60.0547 12.6877 60.0547H35.0547C38.6491 60.0547 41.6024 57.1118 41.6024 53.5096V47.4434H37.8509V47.513ZM23.8673 56.7796C22.2091 56.7796 20.8703 55.4382 20.8703 53.7826C20.8703 52.1219 22.2092 50.783 23.8673 50.783C25.528 50.783 26.8695 52.1244 26.8695 53.7826C26.8695 55.4382 25.5281 56.7796 23.8673 56.7796Z" fill="#0168A8"/>
<path d="M21.4837 11.4414H13.0977V16.555H21.4837V11.4414Z" fill="#0168A8"/>
<path d="M21.4837 24.5312H13.0977V29.6448H21.4837V24.5312Z" fill="#0168A8"/>
<path d="M21.4837 38.2344H13.0977V43.3453H21.4837V38.2344Z" fill="#0168A8"/>
<path d="M51.2479 26.7805C50.9518 25.2304 50.3518 23.7962 49.5022 22.5423L52.5096 19.5324L49.4379 16.471L46.4356 19.4757C45.1868 18.621 43.745 18.0287 42.2001 17.73V13.4688H37.8539V17.73C36.3065 18.0287 34.8775 18.6235 33.6159 19.4757L30.6189 16.471L27.5472 19.5349L30.5495 22.5448C29.7023 23.7988 29.105 25.2329 28.8089 26.7803H24.5527V31.124H28.8088C29.1049 32.6663 29.7048 34.1005 30.5519 35.3595L27.5471 38.3643L30.6188 41.4231L33.6236 38.4208C34.8801 39.2756 36.3142 39.8704 37.8616 40.1717V44.4252H42.2077V40.1692C43.7526 39.873 45.1842 39.2731 46.4433 38.4235L49.4455 41.4257L52.5172 38.3643L49.5098 35.3595C50.3595 34.1056 50.9569 32.6689 51.2555 31.1215H55.5142V26.7805H51.2479ZM40.0322 33.6783C37.4189 33.6783 35.2972 31.567 35.2972 28.951C35.2972 26.3376 37.4187 24.2134 40.0322 24.2134C42.6482 24.2134 44.7595 26.335 44.7595 28.951C44.7595 31.5695 42.643 33.6783 40.0322 33.6783Z" fill="#0168A8"/>
</g>
<defs>
<clipPath id="clip0_2239_3418">
<rect width="60" height="60" fill="white" transform="translate(0.828125 0.0546875)"/>
</clipPath>
</defs>
</svg>
