<svg width="61" height="61" viewBox="0 0 61 61" fill="none" xmlns="http://www.w3.org/2000/svg">
<g clip-path="url(#clip0_2239_3430)">
<path d="M30.7405 11.9805C33.1564 11.9805 35.1233 10.0136 35.1233 7.59766C35.1233 5.18172 33.1564 3.21484 30.7405 3.21484C28.3245 3.21484 26.3577 5.18172 26.3577 7.59766C26.3577 10.0136 28.3245 11.9805 30.7405 11.9805ZM6.92422 11.9805C4.50828 11.9805 2.54141 10.0136 2.54141 7.59766C2.54141 5.18172 4.50828 3.21484 6.92422 3.21484C9.34016 3.21484 11.307 5.18172 11.307 7.59766C11.307 10.0136 9.34016 11.9805 6.92422 11.9805ZM54.6383 11.9805C57.0542 11.9805 59.0211 10.0136 59.0211 7.59766C59.0211 5.18172 57.0542 3.21484 54.6383 3.21484C52.2223 3.21484 50.2555 5.18172 50.2555 7.59766C50.2555 10.0136 52.2223 11.9805 54.6383 11.9805ZM60.3045 33.183C60.3045 33.9252 59.2269 55.5358 59.2269 55.5358C59.2269 57.1759 57.9617 58.4411 56.3216 58.4411C54.6814 58.4411 53.4163 57.1759 53.4163 55.5358C53.4163 55.5358 51.3966 33.0423 50.8393 24.6437L46.2125 30.2041C45.8155 30.681 45.2295 30.9522 44.6169 30.9522C44.5374 30.9522 44.4575 30.9477 44.3776 30.9384C43.681 30.8575 43.0723 30.4309 42.7592 29.8035L37.2127 18.697V55.2726C37.2127 57.0152 35.9227 58.4406 34.3161 58.4406C32.7095 58.4406 31.4195 57.0152 31.4195 55.2726V35.2459C31.4195 34.9291 31.1478 34.6574 30.8309 34.6574C30.5141 34.6574 30.2424 34.9291 30.2424 35.2459V55.2728C30.2424 57.0154 28.9524 58.4409 27.3458 58.4409C25.7391 58.4409 24.4491 57.0154 24.4491 55.2728V18.4968L18.8026 29.8037C18.4895 30.4312 17.8808 30.8577 17.1845 30.9386C17.1045 30.9477 17.0246 30.9524 16.9452 30.9524C16.3327 30.9524 15.7466 30.6812 15.3495 30.2043L10.7232 24.6437C10.1659 33.0423 8.14625 55.5355 8.14625 55.5355C8.14625 57.1757 6.88109 58.4409 5.24094 58.4409C3.60078 58.4409 2.33562 57.1757 2.33562 55.5355C2.33562 55.5355 1.25797 33.9252 1.25797 33.183C1.25797 33.183 1.25 16.4629 1.25 16.4087C1.25 14.5408 2.67758 13.2201 4.43867 13.2201C5.77273 13.2201 6.79953 13.671 7.87203 14.7473C7.90273 14.7782 16.509 25.105 16.509 25.105C16.4945 25.0877 20.3202 17.3484 21.0809 15.9639C22.0991 14.1116 23.5681 13.2194 25.4403 13.2065C25.4448 13.2065 25.4499 13.2053 25.4541 13.2053C25.4541 13.2053 36.0181 13.2081 36.0826 13.2105C37.9738 13.2053 39.4566 14.0983 40.4823 15.9648C40.5036 16.0016 45.054 25.105 45.054 25.105C45.054 25.105 53.6588 14.7782 53.6916 14.7466C54.74 13.6476 55.9299 13.2201 57.1241 13.2201C58.8852 13.2201 60.3127 14.6477 60.3127 16.4087C60.3125 17.0495 60.3045 33.183 60.3045 33.183Z" fill="#0168A8"/>
</g>
<defs>
<clipPath id="clip0_2239_3430">
<rect width="60" height="60" fill="white" transform="translate(0.78125 0.828125)"/>
</clipPath>
</defs>
</svg>
